<svg width="56" height="16" viewBox="0 0 56 16" fill="none" xmlns="http://www.w3.org/2000/svg">
<path d="M7.87061 15.935C7.488 15.9328 7.10774 15.8741 6.74191 15.7606C6.34073 15.6359 5.95296 15.4707 5.58447 15.2674C5.08057 15.005 4.59919 14.7005 4.14534 14.3569C3.73685 14.0329 3.35078 13.6809 2.98982 13.3034C2.50089 12.8083 2.04481 12.3018 1.66977 11.8366C1.25497 11.3414 0.896807 10.8003 0.602122 10.2236L0.57721 10.1709V10.1693L0.571461 10.1571V10.1543V10.1515L0.542443 10.0886L0.540527 10.0845L0.53861 10.0803L0.511235 10.0196L0.507676 10.0118V10.0096L0.487418 9.96413L0.481122 9.94999L0.476468 9.93918L0.472635 9.93059V9.92892L0.451556 9.88041L0.449366 9.87486L0.443617 9.86959L0.418705 9.81082L0.414599 9.80112L0.390235 9.74151L0.388592 9.73763L0.38695 9.73375L0.363954 9.67553L0.361217 9.6686L0.339042 9.61121V9.60927L0.336031 9.60151L0.314952 9.54606L0.313036 9.54051L0.310572 9.53414C0.304002 9.5164 0.297705 9.49865 0.291135 9.48036V9.47675L0.287303 9.46594C0.279911 9.44542 0.274162 9.42851 0.268961 9.41354V9.41022L0.264855 9.39774L0.243502 9.34285L0.2383 9.32677L0.221601 9.27576L0.218864 9.26772L0.216674 9.25968C0.210651 9.24082 0.205723 9.22447 0.20107 9.2095L0.196416 9.19369L0.183002 9.14878L0.180538 9.14019V9.13852L0.1778 9.12882L0.164113 9.08446L0.161922 9.07698L0.159732 9.06561C0.155079 9.04815 0.150972 9.0329 0.14714 9.01848L0.144402 9.01016L0.141938 9.00101C0.13838 8.98688 0.134273 8.97163 0.130167 8.95444L0.126061 8.93781V8.93392C0.123049 8.92145 0.118943 8.9062 0.11511 8.88846L0.109361 8.86656C0.106076 8.85297 0.102791 8.83883 0.0992325 8.82164L0.0970424 8.81111L0.0945786 8.80002C0.0912935 8.78505 0.0882822 8.77008 0.0852709 8.75538L0.0819858 8.73487C0.0797958 8.72433 0.0778795 8.7138 0.0756895 8.70326V8.69772V8.69301V8.69134L0.0715831 8.66916V8.66639L0.0658343 8.63396C0.063918 8.6237 0.0622754 8.61344 0.0606329 8.60318L0.0551578 8.56936C0.0535153 8.55966 0.0521465 8.54995 0.0505039 8.54163C0.0488614 8.53332 0.0469451 8.51752 0.0450288 8.50532L0.0433863 8.4934L0.0417438 8.48147C0.0398275 8.46734 0.0379112 8.45375 0.0362687 8.43961L0.0299723 8.41799V8.41411C0.0272347 8.39803 0.0272347 8.38472 0.0244972 8.37252C0.0244972 8.36504 0.0228546 8.35755 0.0220334 8.35007V8.34729C0.0206646 8.33399 0.0192958 8.31957 0.017927 8.30626C0.017927 8.2985 0.0165582 8.29046 0.015737 8.2827V8.28103C0.014642 8.26958 0.0136382 8.25812 0.0127257 8.24666C0.0127257 8.2364 0.0110831 8.22642 0.0105356 8.21616C0.0099881 8.2059 0.00916684 8.19592 0.00834557 8.18594C0.00834557 8.17457 0.00697679 8.16321 0.00642928 8.15156C0.00588177 8.13992 0.00642928 8.13243 0.00478675 8.12384C0.00314421 8.11525 0.00478675 8.10083 0.00341797 8.08946V8.0878C0.00341797 8.0781 0.00341797 8.06839 0.00341797 8.05869C0.00341797 8.04899 0.00341797 8.04344 0.00341797 8.03596V8.02487C0.00341797 8.01433 0.00341797 8.00352 0.00341797 7.99299C0.00341797 7.98245 0.00341797 7.9758 0.00341797 7.9672V7.90261C0.00341797 7.8893 0.00341797 7.87599 0.00341797 7.86268C0.00341797 7.85326 0.00341797 7.84383 0.00341797 7.83496C0.00341797 7.82609 0.00341797 7.8114 0.00341797 7.79947C0.00341797 7.79282 0.00341797 7.78645 0.00341797 7.77979V7.77009C0.00341797 7.75512 0.00341797 7.74236 0.00533426 7.72961C0.00533426 7.72213 0.00533426 7.71436 0.00533426 7.70688C0.00533426 7.69468 0.00670304 7.68165 0.00779806 7.66612C0.00779806 7.65892 0.00779806 7.65143 0.00944059 7.64422C0.00944059 7.63036 0.0116306 7.6165 0.0127257 7.60264V7.58905V7.57935C0.0140032 7.56549 0.015372 7.55163 0.016832 7.53776L0.019022 7.51586V7.51143C0.019022 7.49895 0.0217596 7.48537 0.0239496 7.46929C0.0239496 7.4643 0.0239496 7.45931 0.0258659 7.45432V7.44711V7.44434C0.0275085 7.43047 0.0294248 7.41661 0.031341 7.40275L0.0340786 7.38307C0.0362687 7.3681 0.0384587 7.35313 0.0406487 7.33843L0.0433863 7.3218V7.3193C0.0455763 7.30544 0.0480401 7.29019 0.0510515 7.27273L0.0543365 7.25332C0.0570741 7.23724 0.0600854 7.22088 0.0630967 7.20453L0.0655605 7.19177V7.18484C0.0685718 7.16876 0.0718569 7.15213 0.075142 7.13605L0.0778795 7.12219V7.11969C0.0811646 7.10361 0.0847234 7.08698 0.0882822 7.07062V7.06535L0.0904723 7.0551C0.0937573 7.03985 0.0975899 7.02377 0.10197 7.00492L0.105529 6.99022C0.109361 6.97442 0.113468 6.95723 0.118669 6.93616L0.120585 6.92868L0.122228 6.92258C0.126882 6.904 0.131809 6.88515 0.137284 6.86464L0.138653 6.85937L0.140296 6.85355C0.145771 6.83331 0.150699 6.81529 0.155352 6.7981L0.158911 6.78535C0.163565 6.76899 0.169314 6.74958 0.175063 6.7299V6.72768L0.178074 6.7177C0.184097 6.69774 0.190119 6.67833 0.195594 6.66059L0.198606 6.65089C0.204628 6.63176 0.211199 6.61124 0.218864 6.58795L0.220506 6.58269V6.58075C0.22735 6.55968 0.234742 6.53833 0.241312 6.51865L0.244597 6.5095C0.251441 6.48926 0.258832 6.46874 0.265676 6.44961L0.267318 6.44518L0.268961 6.44074C0.277447 6.41745 0.284565 6.39833 0.291135 6.38003L0.293873 6.37254C0.301812 6.35175 0.310024 6.33012 0.318511 6.30822L0.320153 6.30407C0.328366 6.28272 0.3374 6.26026 0.347529 6.23531L0.349445 6.2306C0.358753 6.20759 0.367513 6.18596 0.376821 6.16489L0.379832 6.15768C0.387771 6.13856 0.396531 6.11804 0.407208 6.09337L0.410493 6.08588C0.418705 6.06703 0.427739 6.04596 0.439511 6.0199L0.441975 6.01435C0.454294 5.98663 0.464696 5.9639 0.474278 5.9431C1.04478 4.70109 1.89781 3.83611 2.72428 2.99997L2.7407 2.98333C3.22142 2.49651 3.6701 2.08093 4.11222 1.71304C4.61787 1.28776 5.15664 0.904571 5.72327 0.567224C6.03826 0.377402 6.37626 0.229788 6.72877 0.128083C7.03088 0.0435142 7.34283 0.000434537 7.65626 0C8.07775 0.00308112 8.49597 0.0751688 8.89473 0.213472C9.27629 0.3455 9.64557 0.511473 9.99824 0.709446C10.5615 1.01578 11.1019 1.36344 11.615 1.74964C12.098 2.11398 12.5544 2.51322 12.9805 2.94424C13.4254 3.39995 13.8325 3.89185 14.1979 4.41498C14.5394 4.88204 14.8212 5.39091 15.0367 5.92952C15.1772 6.30619 15.2965 6.69059 15.3942 7.08088C15.4794 7.42012 15.5273 7.76785 15.5371 8.11774C15.5439 8.46064 15.5029 8.80278 15.4153 9.13409C15.3122 9.51316 15.1656 9.87873 14.9787 10.2233C14.7124 10.729 14.4008 11.2089 14.0479 11.6569C13.6964 12.0967 13.3202 12.5155 12.9211 12.9114C12.49 13.348 12.0358 13.7606 11.5606 14.1473C11.0632 14.5529 10.5415 14.927 9.99851 15.2674C9.36607 15.6897 8.62807 15.9213 7.87061 15.935ZM9.03544 14.169C8.71957 14.3573 8.37838 14.4981 8.02254 14.587C8.37839 14.4981 8.71958 14.3573 9.03544 14.169ZM4.38816 13.533C4.42129 13.5557 4.45551 13.5787 4.48973 13.6012C4.45195 13.5762 4.41882 13.5538 4.38816 13.533ZM3.23237 12.5563L3.29068 12.6137L3.23237 12.5563ZM3.79001 6.97414L3.77194 7.01379V7.01684L3.75579 7.05343L3.75414 7.05759L3.73881 7.09336V7.0953V7.09724L3.72376 7.13383V7.13633L3.7087 7.17431V7.17597L3.69501 7.21174V7.21423V7.21645L3.68269 7.24999L3.68105 7.25415L3.66928 7.28742V7.29019V7.29241C3.66545 7.30295 3.66189 7.31431 3.65778 7.32679V7.32956C3.65313 7.3437 3.64957 7.35423 3.64656 7.36449L3.64492 7.36976L3.63533 7.40164L3.63342 7.4083C3.63032 7.41846 3.6273 7.42863 3.62438 7.43879V7.4424V7.446L3.6159 7.4765L3.60194 7.48537L3.60029 7.49202L3.59372 7.51697L3.59181 7.52446C3.58934 7.53444 3.58688 7.54442 3.58442 7.5544L3.5825 7.56244L3.5762 7.59016L3.57456 7.59792L3.57237 7.60846L3.56881 7.62537V7.62981V7.63452L3.56416 7.65753V7.66197L3.55868 7.67638L3.5554 7.69413L3.55376 7.70355V7.70771V7.71353C3.55239 7.72213 3.55102 7.73044 3.54965 7.73904L3.54801 7.74957L3.54445 7.77452L3.54281 7.78506C3.54281 7.79338 3.54062 7.80142 3.53952 7.80973V7.81611V7.82249C3.53952 7.83025 3.5376 7.83801 3.53678 7.84577V7.85354V7.86047V7.86795C3.53678 7.87322 3.53678 7.87849 3.53541 7.88348V7.89651V7.90344C3.53541 7.90871 3.53541 7.91425 3.53541 7.91952C3.53541 7.92479 3.53541 7.92756 3.53541 7.93172C3.53541 7.93587 3.53541 7.94613 3.53404 7.95334C3.53404 7.95611 3.53404 7.95889 3.53404 7.96194V7.96693C3.53404 7.97413 3.53404 7.98134 3.53404 7.98883C3.53404 7.99631 3.53404 7.99936 3.53404 8.00463C3.53404 8.01073 3.53404 8.01711 3.53404 8.0232V8.04067C3.53404 8.0476 3.53404 8.05453 3.53404 8.06146V8.11164C3.53404 8.11747 3.53404 8.12356 3.53404 8.12939C3.53404 8.13521 3.53404 8.14186 3.53404 8.14824V8.16432C3.53404 8.17097 3.53404 8.17762 3.53404 8.18428V8.19232V8.20036C3.53404 8.20479 3.53404 8.20895 3.53404 8.21339V8.22004V8.22864V8.23695C3.53404 8.2425 3.53404 8.24832 3.53404 8.25386V8.26329V8.27355V8.2863C3.53404 8.29379 3.53541 8.30127 3.53624 8.30876C3.53624 8.31181 3.53624 8.31458 3.53624 8.31763V8.32262C3.53624 8.33038 3.53788 8.33787 3.53897 8.34535V8.35117V8.35894L3.54062 8.37058L3.54198 8.38112L3.5439 8.39442V8.40108L3.54582 8.41383V8.42048V8.42852L3.54746 8.43795V8.44599V8.45403L3.5491 8.46318L3.55266 8.48203V8.4873L3.55458 8.49783V8.5031L3.55731 8.51752L3.5595 8.52805C3.56115 8.53637 3.56288 8.54459 3.56471 8.55272L3.56717 8.56465L3.571 8.58156L3.57264 8.58932V8.59514V8.60041L3.57839 8.62481L3.58113 8.63617C3.58359 8.64615 3.58578 8.65447 3.5877 8.66196L3.59044 8.67249L3.59728 8.69772L3.59865 8.70271L3.60002 8.7077C3.60221 8.71602 3.60467 8.72406 3.60686 8.73237L3.60988 8.74319L3.61727 8.76841L3.61864 8.77313V8.77729L3.62712 8.80501V8.80917V8.8136L3.6315 8.82691L3.63616 8.84105L3.63807 8.84659V8.84992L3.64519 8.87127L3.64738 8.87764L3.65039 8.88624V8.89012L3.65888 8.91452L3.66162 8.92256L3.67257 8.9525L3.67421 8.95666V8.95943L3.68598 8.99076L3.68817 8.9963L3.70049 9.02818L3.70213 9.03207L3.71308 9.05979L3.715 9.0645V9.06644V9.06894C3.71938 9.07975 3.72403 9.09084 3.72869 9.10193L3.73033 9.10609L3.74402 9.1388L3.74593 9.14351L3.75661 9.16819L3.75962 9.17512L3.76236 9.18122L3.77687 9.21421V9.21615L3.77851 9.21975L3.79384 9.25358V9.25635V9.25829L3.79822 9.26772L3.80999 9.2935V9.29516L3.81574 9.30708L3.82724 9.33176C4.18469 9.96429 4.63111 10.5408 5.15249 11.0431C5.56618 11.4893 6.05403 11.8585 6.59381 12.1338C6.97987 12.3629 7.4165 12.4904 7.86376 12.5044C8.28452 12.4969 8.69449 12.3683 9.04584 12.1338C9.63459 11.7619 10.1793 11.3228 10.6692 10.8252C11.1246 10.3907 11.5103 9.88688 11.8124 9.33203C12.2614 8.48147 12.1754 7.86268 11.8447 6.94781C11.5767 6.33781 11.199 5.78354 10.7311 5.31322C10.2416 4.81981 9.68358 4.40156 9.07458 4.07176C8.68005 3.83364 8.23337 3.69828 7.77452 3.67781C7.39753 3.68185 7.02863 3.78904 6.70687 3.98804C6.09882 4.35978 5.54177 4.81103 5.0501 5.33014L5.04134 5.33901C4.52969 5.80256 4.10598 6.35689 3.7911 6.9747L3.79001 6.97414ZM3.05579 12.3802L3.15736 12.4823L3.05579 12.3802ZM11.9709 11.7731C11.8913 11.8563 11.8067 11.9433 11.7166 12.0348C11.6112 12.1415 11.5031 12.2477 11.3933 12.3522C11.5028 12.2477 11.6123 12.1415 11.7166 12.0348C11.8072 11.9428 11.8915 11.8557 11.9709 11.7725V11.7731ZM13.5707 9.57517C13.5516 9.61315 13.5319 9.65169 13.5116 9.69022C13.3793 9.94157 13.234 10.1857 13.0763 10.4216C13.234 10.1857 13.3793 9.94157 13.5116 9.69022C13.5321 9.65113 13.5508 9.6126 13.571 9.57434L13.5707 9.57517ZM13.752 6.50589C13.851 6.81468 13.9237 7.13153 13.9691 7.45293C13.9243 7.13114 13.8516 6.81396 13.752 6.50506V6.50589ZM11.3495 2.9387C11.4935 3.06956 11.6332 3.20364 11.7686 3.34097C12.1567 3.7385 12.512 4.16762 12.8308 4.62402C12.9693 4.82252 13.0944 5.01686 13.2025 5.20205C12.8004 4.52539 12.319 3.90049 11.7686 3.34097C11.6336 3.20327 11.4939 3.06919 11.3495 2.9387ZM8.85366 1.2276C8.95359 1.27639 9.05624 1.32962 9.16712 1.39006C9.47454 1.5564 9.77704 1.74049 10.0659 1.93372C9.77759 1.73965 9.47509 1.55779 9.16739 1.39006C9.05624 1.33073 8.95386 1.27528 8.85366 1.2276ZM3.97397 8.86656C3.92235 8.74488 3.87881 8.61984 3.84366 8.49229C3.7996 8.334 3.77451 8.17093 3.76893 8.00657C3.78414 8.30346 3.85376 8.5949 3.97424 8.866L3.97397 8.86656Z" fill="#53B7D1"/>
<path d="M24.5375 11.5729C24.8917 11.5729 25.2178 11.5658 25.516 11.5516C25.8142 11.5373 26.1218 11.5067 26.4388 11.4595C26.4664 11.453 26.4953 11.4534 26.5228 11.4608C26.5502 11.4681 26.5753 11.4823 26.596 11.5019C26.6168 11.5215 26.6326 11.546 26.6417 11.5731C26.6509 11.6003 26.6533 11.6294 26.6487 11.6578V12.7196C26.6487 12.8421 26.5744 12.9272 26.4249 12.9744C26.06 13.0887 25.6856 13.1692 25.3064 13.215C24.9033 13.2698 24.497 13.2981 24.0902 13.2998C23.4367 13.3179 22.7859 13.2073 22.174 12.9741C21.6771 12.7755 21.2392 12.4509 20.902 12.0315C20.5595 11.5869 20.3161 11.0725 20.1887 10.5236C20.0321 9.86087 19.9572 9.18112 19.9655 8.49976V7.84854C19.9573 7.16757 20.0301 6.48807 20.1823 5.8247C20.3047 5.27671 20.5432 4.76222 20.8814 4.31683C21.215 3.89654 21.6512 3.57164 22.1467 3.37422C22.7586 3.14094 23.4094 3.03032 24.063 3.04849C24.8228 3.05404 25.5773 3.17822 26.2998 3.41666C26.3639 3.43286 26.4222 3.46727 26.4677 3.51588C26.4979 3.56186 26.5127 3.61654 26.5097 3.67169V4.69109C26.5142 4.71946 26.5116 4.74851 26.5024 4.77569C26.4932 4.80288 26.4775 4.82737 26.4567 4.84697C26.436 4.86656 26.4109 4.88066 26.3835 4.88805C26.3561 4.89544 26.3272 4.89586 26.2995 4.8893C26.0384 4.85234 25.7541 4.82397 25.4467 4.80419C25.1394 4.78441 24.8272 4.77518 24.51 4.77647C24.1267 4.76559 23.7451 4.82806 23.3847 4.96057C23.0894 5.07746 22.8341 5.27925 22.6506 5.5411C22.4496 5.84147 22.3138 6.18166 22.2523 6.53915C22.1668 7.00842 22.127 7.48506 22.1333 7.96221V8.40108C22.1269 8.87845 22.169 9.3552 22.259 9.82384C22.3243 10.1805 22.465 10.5186 22.6715 10.8149C22.8621 11.074 23.1216 11.2728 23.4195 11.3883C23.7777 11.5197 24.1569 11.5821 24.5378 11.5724L24.5375 11.5729ZM28.2706 3.44603C28.2706 3.29494 28.3401 3.21953 28.4802 3.21953H30.2137C30.244 3.21512 30.2752 3.21796 30.3043 3.22778C30.3334 3.23761 30.3598 3.25416 30.3815 3.27614C30.4032 3.29812 30.4194 3.3249 30.4291 3.35439C30.4388 3.38388 30.4418 3.41526 30.4374 3.44603V10.7651C30.4219 10.978 30.4706 11.1907 30.5772 11.375C30.6508 11.4512 30.741 11.5088 30.8406 11.5433C30.9401 11.5777 31.0462 11.5879 31.1504 11.5732H34.463C34.4934 11.5688 34.5243 11.5716 34.5534 11.5814C34.5825 11.5913 34.6089 11.6078 34.6306 11.6298C34.6523 11.6518 34.6688 11.6786 34.6785 11.7081C34.6882 11.7376 34.6909 11.7689 34.6865 11.7997V12.8474C34.6865 13.0267 34.6075 13.121 34.4491 13.1304C33.9366 13.1776 33.3493 13.2177 32.6873 13.2507C32.0254 13.2838 31.3403 13.3004 30.632 13.3004C30.2583 13.3073 29.885 13.2692 29.5202 13.187C29.2505 13.1282 28.9989 13.0046 28.7863 12.8266C28.5957 12.6546 28.4575 12.4312 28.3877 12.1825C28.3018 11.8644 28.2619 11.5353 28.2693 11.2056L28.2706 3.44603ZM38.1544 12.8895C38.1591 12.9222 38.1562 12.9555 38.1459 12.9869C38.1356 13.0182 38.1181 13.0467 38.0951 13.07C38.072 13.0934 38.044 13.111 38.013 13.1214C37.9821 13.1318 37.9493 13.1348 37.917 13.1302H36.225C36.1928 13.1348 36.16 13.1318 36.1291 13.1214C36.0981 13.111 36.0701 13.0934 36.047 13.07C36.0239 13.0467 36.0065 13.0182 35.9962 12.9869C35.9859 12.9555 35.9828 12.9222 35.9874 12.8895V3.47429C35.9874 3.30444 36.0666 3.21953 36.225 3.21953H37.917C38.0756 3.21953 38.1546 3.30444 38.1544 3.47429V12.8895ZM44.6973 11.5726C45.0517 11.5726 45.3781 11.5655 45.6763 11.5513C45.9745 11.5371 46.2821 11.5064 46.5989 11.4592C46.6265 11.4527 46.6551 11.4531 46.6826 11.4605C46.71 11.4679 46.7353 11.482 46.7561 11.5016C46.7768 11.5212 46.7926 11.5457 46.8018 11.5728C46.811 11.6 46.8133 11.6291 46.8088 11.6575V12.7193C46.8088 12.842 46.7343 12.927 46.585 12.9741C46.2202 13.0884 45.8456 13.1689 45.4664 13.2147C45.0632 13.2695 44.6571 13.2979 44.2503 13.2995C43.5967 13.3177 42.9459 13.207 42.334 12.9738C41.8372 12.7752 41.399 12.4506 41.0618 12.0312C40.7198 11.5865 40.477 11.0721 40.3501 10.5233C40.1934 9.86062 40.1181 9.18086 40.1263 8.49949V7.84827C40.1182 7.1673 40.191 6.4878 40.3431 5.82443C40.4657 5.27648 40.7044 4.76201 41.0425 4.31656C41.3762 3.89627 41.8123 3.57137 42.3078 3.37395C42.9197 3.14069 43.5705 3.03005 44.2241 3.04818C44.9841 3.05377 45.7386 3.17795 46.4612 3.41635C46.5252 3.43261 46.5832 3.46706 46.6286 3.51561C46.6588 3.56159 46.6736 3.61626 46.6705 3.67142V4.69082C46.6751 4.71917 46.6727 4.74823 46.6636 4.77542C46.6544 4.80262 46.6389 4.82709 46.6181 4.8467C46.5974 4.8663 46.572 4.88043 46.5446 4.88781C46.5172 4.8952 46.4886 4.89561 46.4609 4.88903C46.1998 4.85207 45.9154 4.82369 45.6079 4.80392C45.3003 4.78414 44.9882 4.77491 44.6714 4.7762C44.288 4.76529 43.9061 4.82776 43.5456 4.9603C43.2503 5.07719 42.9953 5.27898 42.8118 5.54083C42.6109 5.84132 42.4752 6.18145 42.4134 6.53888C42.3282 7.00818 42.2882 7.48477 42.2945 7.96191V8.40077C42.288 8.87813 42.33 9.35492 42.4198 9.82357C42.4851 10.1803 42.6262 10.5184 42.8329 10.8147C43.0234 11.0738 43.2826 11.2727 43.5806 11.388C43.9387 11.5194 44.3179 11.5818 44.6986 11.5721L44.6973 11.5726ZM55.4486 3.21925C55.4797 3.21622 55.5108 3.22268 55.5382 3.2378C55.5656 3.25292 55.588 3.27601 55.6024 3.3041C55.6158 3.33419 55.6203 3.36755 55.6155 3.40021C55.6106 3.43287 55.5967 3.46342 55.5751 3.48817L52.583 7.99047L55.9665 12.8751C55.9845 12.8976 55.9959 12.9247 55.9996 12.9535C56.0033 12.9822 55.9991 13.0114 55.9873 13.0378C55.9742 13.0689 55.9514 13.0947 55.9224 13.1113C55.8933 13.128 55.8597 13.1345 55.8266 13.1299H53.8556C53.7742 13.134 53.693 13.1195 53.6179 13.0875C53.5534 13.0509 53.5004 12.997 53.4644 12.9316L50.598 8.51418V12.889C50.6026 12.9216 50.5998 12.9549 50.5895 12.9862C50.5791 13.0175 50.5617 13.046 50.5387 13.0693C50.5156 13.0927 50.4875 13.1103 50.4566 13.1207C50.4257 13.1312 50.3929 13.1342 50.3606 13.1296H48.6684C48.6361 13.1342 48.6033 13.1312 48.5724 13.1208C48.5415 13.1103 48.5133 13.0927 48.4903 13.0693C48.4673 13.046 48.4501 13.0175 48.4398 12.9862C48.4295 12.9549 48.4264 12.9216 48.431 12.889V3.47375C48.431 3.3039 48.5101 3.21898 48.6684 3.21898H50.3606C50.5189 3.21898 50.5978 3.3039 50.598 3.47375V7.46595L53.2682 3.38836C53.304 3.33551 53.3522 3.29238 53.4083 3.26274C53.4644 3.23311 53.5268 3.21787 53.5901 3.21841L55.4486 3.21925Z" fill="#333333"/>
</svg>
