<svg width="95" height="22" viewBox="0 0 95 22" fill="none" xmlns="http://www.w3.org/2000/svg">
<mask id="mask0_1_1251" style="mask-type:luminance" maskUnits="userSpaceOnUse" x="0" y="0" width="95" height="22">
<path d="M95 0.5H0V21.5H95V0.5Z" fill="white"/>
</mask>
<g mask="url(#mask0_1_1251)">
<mask id="mask1_1_1251" style="mask-type:luminance" maskUnits="userSpaceOnUse" x="85" y="0" width="8" height="7">
<path d="M85.889 0.5H92.774V6.97059H85.889V0.5Z" fill="white"/>
</mask>
<g mask="url(#mask1_1_1251)">
<path d="M89.3786 2.23437C89.3892 2.32444 89.4077 2.4136 89.4337 2.50091C89.4603 2.58823 89.4941 2.67279 89.5352 2.75458C89.5767 2.8364 89.6251 2.91452 89.6807 2.9885C89.7358 3.06249 89.7976 3.13188 89.8652 3.19576C89.9329 3.26011 90.0058 3.31847 90.0842 3.37086C90.1624 3.42325 90.2445 3.4692 90.3309 3.50873C90.4174 3.54779 90.5064 3.57995 90.5986 3.60478C90.6911 3.62958 90.7843 3.64704 90.8795 3.65716C91.4859 3.71415 92.0937 3.74035 92.7025 3.73575C92.0937 3.73115 91.4859 3.75735 90.8795 3.81433C90.7843 3.82444 90.6911 3.8419 90.5986 3.86672C90.5064 3.89152 90.4174 3.92371 90.3309 3.96277C90.2445 4.00229 90.1624 4.04825 90.0842 4.10064C90.0058 4.15303 89.9329 4.21139 89.8652 4.27574C89.7976 4.3396 89.7363 4.40901 89.6807 4.483C89.6251 4.55698 89.5767 4.6351 89.5357 4.71691C89.4942 4.7987 89.4603 4.88372 89.4337 4.97104C89.4077 5.05835 89.3892 5.14706 89.3786 5.23712C89.3187 5.81203 89.2908 6.38785 89.2956 6.96553C89.3009 6.38785 89.2733 5.81203 89.2124 5.23712C89.2022 5.14706 89.184 5.05835 89.1577 4.97104C89.1312 4.88372 89.0973 4.7987 89.0563 4.71691C89.0148 4.6351 88.9666 4.55698 88.911 4.483C88.8559 4.40901 88.7939 4.3396 88.7263 4.27574C88.6587 4.21139 88.5857 4.15303 88.5075 4.10064C88.4291 4.04825 88.347 4.00229 88.2605 3.96277C88.1745 3.92371 88.0851 3.89152 87.9928 3.86672C87.9011 3.8419 87.8072 3.82444 87.7122 3.81433C87.1058 3.75735 86.4977 3.73115 85.889 3.73575C86.4977 3.74035 87.1058 3.71415 87.7122 3.65716C87.8072 3.64704 87.9011 3.62958 87.9928 3.60478C88.0851 3.57995 88.1741 3.54779 88.2605 3.50873C88.347 3.4692 88.4291 3.42325 88.5075 3.37086C88.5857 3.31847 88.6587 3.26011 88.7263 3.19576C88.7939 3.13188 88.8559 3.06249 88.911 2.9885C88.9666 2.91452 89.0148 2.8364 89.0563 2.75458C89.0973 2.67279 89.1312 2.58823 89.1577 2.50091C89.184 2.4136 89.2022 2.32444 89.2124 2.23437C89.2733 1.65992 89.3009 1.08363 89.2956 0.505966C89.2908 1.08363 89.3187 1.65992 89.3786 2.23437Z" fill="#015486"/>
</g>
<mask id="mask2_1_1251" style="mask-type:luminance" maskUnits="userSpaceOnUse" x="91" y="3" width="4" height="5">
<path d="M91.414 3.67644H94.8635V7.01099H91.414V3.67644Z" fill="white"/>
</mask>
<g mask="url(#mask2_1_1251)">
<path d="M93.1815 4.6103C93.1921 4.70221 93.2187 4.78999 93.2609 4.87362C93.3033 4.9568 93.3589 5.03125 93.428 5.09697C93.497 5.16222 93.5754 5.21508 93.6632 5.25506C93.7518 5.29503 93.844 5.32032 93.9411 5.33042C94.248 5.35938 94.5553 5.37225 94.8636 5.36995C94.5553 5.36765 94.248 5.38098 93.9411 5.40993C93.844 5.42004 93.7518 5.44486 93.6632 5.48483C93.5754 5.52482 93.497 5.57767 93.428 5.64339C93.3589 5.70864 93.3033 5.78309 93.2609 5.86674C93.2187 5.94992 93.1921 6.03768 93.1815 6.13006C93.1511 6.4205 93.137 6.71231 93.1396 7.00461C93.1423 6.71231 93.1285 6.4205 93.0974 6.13006C93.0868 6.03768 93.0607 5.94992 93.0183 5.86674C92.9761 5.78309 92.9205 5.70864 92.8516 5.64339C92.7824 5.57767 92.7038 5.52482 92.6157 5.48483C92.5278 5.44486 92.4349 5.42004 92.3383 5.40993C92.0316 5.38098 91.7238 5.36765 91.4155 5.36995C91.7238 5.37225 92.0316 5.35938 92.3383 5.33042C92.4349 5.32032 92.5278 5.29503 92.6157 5.25506C92.7038 5.21508 92.7824 5.16222 92.8516 5.09697C92.9205 5.03125 92.9761 4.9568 93.0183 4.87362C93.0607 4.78999 93.0868 4.70221 93.0974 4.6103C93.1285 4.31939 93.1423 4.02805 93.14 3.73575C93.137 4.02805 93.1511 4.31939 93.1815 4.6103Z" fill="#015486"/>
</g>
<path d="M91.8858 1.38512C91.8924 1.44119 91.9084 1.49495 91.9339 1.54596C91.96 1.59698 91.9939 1.64247 92.0359 1.68245C92.0785 1.72244 92.1262 1.75461 92.18 1.77896C92.2335 1.80332 92.29 1.81848 92.3495 1.82492C92.5369 1.84238 92.7244 1.85065 92.913 1.84927C92.7244 1.84744 92.5369 1.85571 92.3495 1.87317C92.29 1.8796 92.2335 1.89477 92.18 1.91913C92.1262 1.94348 92.0785 1.97611 92.0359 2.01563C91.9939 2.05561 91.96 2.10111 91.9339 2.15212C91.9084 2.20313 91.8924 2.2569 91.8858 2.31297C91.8673 2.49036 91.8585 2.66867 91.8599 2.84698C91.8615 2.66867 91.8532 2.49036 91.8343 2.31297C91.8281 2.2569 91.8117 2.20313 91.7861 2.15212C91.7606 2.10111 91.7262 2.05561 91.6842 2.01563C91.642 1.97611 91.5943 1.94348 91.5401 1.91913C91.4866 1.89477 91.4299 1.8796 91.3706 1.87317C91.1836 1.85571 90.9957 1.84744 90.8075 1.84927C90.9957 1.85065 91.1836 1.84238 91.3706 1.82492C91.4299 1.81848 91.4866 1.80332 91.5401 1.77896C91.5938 1.75461 91.642 1.72198 91.6842 1.68245C91.7262 1.64247 91.7601 1.59698 91.7861 1.54596C91.8117 1.49495 91.8276 1.44119 91.8343 1.38512C91.8528 1.20773 91.8615 1.02942 91.8599 0.851112C91.8585 1.02942 91.8673 1.20773 91.8858 1.38512Z" fill="#015486"/>
<path d="M2.56922 16.9689H5.47613V9.58427L8.60384 13.9418H10.628L13.7557 9.60173V16.9689H16.6626V4.71983H14.1973L9.63401 11.0719L5.05285 4.71983H2.56922V16.9689Z" fill="#015486"/>
<path d="M22.0888 17.144C23.5245 17.144 24.7018 16.7065 25.5296 15.9014L25.8423 16.9689H27.9215V11.4391C27.9215 9.00706 26.1921 7.53693 23.3036 7.53693C20.8378 7.53693 19.2186 8.65689 18.8693 10.6518H21.5554C21.7211 10.0043 22.4203 9.56681 23.322 9.56681C24.4256 9.56681 25.1803 10.1619 25.1803 11.0719V11.4919H21.6844C19.6787 11.4919 18.3909 12.5944 18.3909 14.2915C18.3909 16.059 19.8077 17.144 22.0888 17.144ZM21.1509 14.1867C21.1509 13.5567 21.7027 13.1541 22.5488 13.1541H25.1987C25.1432 14.3968 24.1314 15.2364 22.7329 15.2364C21.7762 15.2364 21.1509 14.8163 21.1509 14.1867Z" fill="#015486"/>
<path d="M34.5062 20.8536C37.5972 20.8536 39.5659 19.2088 39.5659 16.4616V7.78187H37.4867L37.1923 8.79704C36.3463 7.9919 35.1687 7.53693 33.7886 7.53693C31.0655 7.53693 29.1152 9.44457 29.1152 12.1215C29.1152 14.8163 31.0655 16.724 33.7886 16.724C34.948 16.724 35.978 16.3913 36.7692 15.814V16.4616C36.7692 17.9487 35.978 18.7015 34.4511 18.7015C33.292 18.7015 32.5188 18.2465 32.3168 17.4413H29.5937C29.8328 19.5585 31.7095 20.8536 34.5062 20.8536ZM31.8753 12.1215C31.8753 10.7217 32.9055 9.7419 34.3773 9.7419C35.8491 9.7419 36.898 10.7217 36.898 12.1215C36.898 13.5392 35.8491 14.519 34.3773 14.519C32.9055 14.519 31.8753 13.5392 31.8753 12.1215Z" fill="#015486"/>
<path d="M41.645 16.9689H44.4418V7.78189H41.645V16.9689ZM41.2401 4.80716C41.2401 5.78693 41.9759 6.46939 43.0433 6.46939C44.1102 6.46939 44.8462 5.78693 44.8462 4.80716C44.8462 3.82739 44.1102 3.14494 43.0433 3.14494C41.9759 3.14494 41.2401 3.82739 41.2401 4.80716Z" fill="#015486"/>
<path d="M51.1024 17.2138C53.8258 17.2138 55.8678 15.6913 56.3834 13.2768H53.66C53.2736 14.274 52.3169 14.9216 51.1393 14.9216C49.6306 14.9216 48.5821 13.8715 48.5821 12.3669C48.5821 10.8618 49.6306 9.81173 51.1393 9.81173C52.2433 9.81173 53.1449 10.3719 53.6049 11.2993H56.291C55.8494 9.0245 53.7891 7.5369 51.1024 7.5369C48.0114 7.5369 45.8221 9.54932 45.8221 12.3669C45.8221 15.2014 47.9932 17.2138 51.1024 17.2138Z" fill="#015486"/>
<path d="M64.3092 17.2087C67.1977 17.2087 69.2402 15.2138 69.2402 12.3618C69.2402 9.5447 67.1977 7.53228 64.3092 7.53228C63.1132 7.53228 62.0647 7.88201 61.2549 8.49461V4.01482H58.4587V16.9638H60.5374L60.8505 15.9137C61.7149 16.7363 62.9107 17.2087 64.3092 17.2087ZM61.1447 12.3618C61.1447 10.8742 62.2487 9.80711 63.8123 9.80711C65.3948 9.80711 66.4802 10.8742 66.4802 12.3618C66.4802 13.8664 65.3948 14.9165 63.8123 14.9165C62.2487 14.9165 61.1447 13.8664 61.1447 12.3618Z" fill="#3E97FF"/>
<path d="M75.3643 17.2087C78.5655 17.2087 80.7731 15.2313 80.7731 12.3618C80.7731 9.50931 78.5655 7.53228 75.3643 7.53228C72.1442 7.53228 69.9364 9.50931 69.9364 12.3618C69.9364 15.2313 72.1442 17.2087 75.3643 17.2087ZM72.696 12.3618C72.696 10.8567 73.8 9.80711 75.3643 9.80711C76.9279 9.80711 78.0137 10.8567 78.0137 12.3618C78.0137 13.8664 76.9279 14.9165 75.3643 14.9165C73.8 14.9165 72.696 13.8664 72.696 12.3618Z" fill="#3E97FF"/>
<path d="M86.8081 16.9638H88.5741V14.654H87.4155C86.3114 14.654 85.7963 14.1467 85.7963 13.0791V9.94677H88.4457V7.77719H85.7963V5.3976H83.6254L83.4596 6.58739C83.3127 7.53224 83.0362 7.77719 81.9878 7.77719H81.1233V9.94677H82.9996V13.4817C82.9996 15.7216 84.3612 16.9638 86.8081 16.9638Z" fill="#3E97FF"/>
</g>
</svg>
